<svg width="71.323326" height="10.423004" viewBox="0 0 71.3233 10.423" fill="none" xmlns="http://www.w3.org/2000/svg" xmlns:xlink="http://www.w3.org/1999/xlink">
	<desc>
			Created with Pixso.
	</desc>
	<defs/>
	<path id="Add to Cart" d="M6.566 6.58701L4.991 2.50601C4.94433 2.38467 4.89533 2.24467 4.844 2.08601C4.79267 1.92267 4.74367 1.75 4.697 1.56801C4.599 1.946 4.49867 2.261 4.396 2.51301L2.821 6.58701L6.566 6.58701ZM9.394 10.311L8.344 10.311C8.22267 10.311 8.12467 10.2807 8.05 10.22C7.97533 10.1593 7.91933 10.0823 7.882 9.98901L6.944 7.56701L2.443 7.56701L1.505 9.98901C1.477 10.073 1.42333 10.1477 1.344 10.213C1.26467 10.2783 1.16667 10.311 1.05 10.311L1.82539e-07 10.311L4.011 0.280005L5.383 0.280005L9.394 10.311ZM14.8892 4.90701C14.6559 4.59434 14.4039 4.37734 14.1332 4.25601C13.8626 4.13001 13.5592 4.06701 13.2232 4.06701C12.5652 4.06701 12.0589 4.30267 11.7042 4.77401C11.3496 5.24534 11.1722 5.91734 11.1722 6.79001C11.1722 7.25201 11.2119 7.64867 11.2912 7.98001C11.3706 8.30667 11.4872 8.57734 11.6412 8.79201C11.7952 9.00201 11.9842 9.15601 12.2082 9.25401C12.4322 9.35201 12.6866 9.40101 12.9712 9.40101C13.3819 9.40101 13.7389 9.30767 14.0422 9.12101C14.3502 8.93434 14.6326 8.67067 14.8892 8.33001L14.8892 4.90701ZM16.1352 4.76837e-06L16.1352 10.311L15.3932 10.311C15.2159 10.311 15.1039 10.2247 15.0572 10.052L14.9452 9.19101C14.6419 9.55501 14.2966 9.84901 13.9092 10.073C13.5219 10.297 13.0739 10.409 12.5652 10.409C12.1592 10.409 11.7906 10.332 11.4592 10.178C11.1279 10.0193 10.8456 9.78834 10.6122 9.48501C10.3789 9.18167 10.1992 8.80367 10.0732 8.35101C9.94722 7.89834 9.88422 7.37801 9.88422 6.79001C9.88422 6.26734 9.95422 5.78201 10.0942 5.33401C10.2342 4.88134 10.4349 4.48934 10.6962 4.15801C10.9576 3.82667 11.2772 3.56767 11.6552 3.38101C12.0379 3.18967 12.4672 3.09401 12.9432 3.09401C13.3772 3.09401 13.7482 3.16867 14.0562 3.31801C14.3689 3.46267 14.6466 3.66567 14.8892 3.92701L14.8892 4.76837e-06L16.1352 4.76837e-06ZM22.7232 4.90701C22.4899 4.59434 22.2379 4.37734 21.9672 4.25601C21.6965 4.13001 21.3932 4.06701 21.0572 4.06701C20.3992 4.06701 19.8929 4.30267 19.5382 4.77401C19.1835 5.24534 19.0062 5.91734 19.0062 6.79001C19.0062 7.25201 19.0459 7.64867 19.1252 7.98001C19.2045 8.30667 19.3212 8.57734 19.4752 8.79201C19.6292 9.00201 19.8182 9.15601 20.0422 9.25401C20.2662 9.35201 20.5205 9.40101 20.8052 9.40101C21.2159 9.40101 21.5729 9.30767 21.8762 9.12101C22.1842 8.93434 22.4665 8.67067 22.7232 8.33001L22.7232 4.90701ZM23.9692 4.76837e-06L23.9692 10.311L23.2272 10.311C23.0499 10.311 22.9379 10.2247 22.8912 10.052L22.7792 9.19101C22.4759 9.55501 22.1305 9.84901 21.7432 10.073C21.3559 10.297 20.9079 10.409 20.3992 10.409C19.9932 10.409 19.6245 10.332 19.2932 10.178C18.9619 10.0193 18.6795 9.78834 18.4462 9.48501C18.2129 9.18167 18.0332 8.80367 17.9072 8.35101C17.7812 7.89834 17.7182 7.37801 17.7182 6.79001C17.7182 6.26734 17.7882 5.78201 17.9282 5.33401C18.0682 4.88134 18.2689 4.48934 18.5302 4.15801C18.7915 3.82667 19.1112 3.56767 19.4892 3.38101C19.8719 3.18967 20.3012 3.09401 20.7772 3.09401C21.2112 3.09401 21.5822 3.16867 21.8902 3.31801C22.2029 3.46267 22.4805 3.66567 22.7232 3.92701L22.7232 4.76837e-06L23.9692 4.76837e-06ZM31.6962 10.423C31.1362 10.423 30.7046 10.2667 30.4012 9.95401C30.1026 9.64134 29.9532 9.19101 29.9532 8.60301L29.9532 4.26301L29.0992 4.26301C29.0246 4.26301 28.9616 4.24201 28.9102 4.20001C28.8589 4.15334 28.8332 4.08334 28.8332 3.99001L28.8332 3.49301L29.9952 3.346L30.2822 1.15501C30.2962 1.085 30.3266 1.02901 30.3732 0.987005C30.4246 0.940339 30.4899 0.917006 30.5692 0.917006L31.1992 0.917006L31.1992 3.36001L33.2502 3.36001L33.2502 4.26301L31.1992 4.26301L31.1992 8.51901C31.1992 8.81767 31.2716 9.03934 31.4162 9.18401C31.5609 9.32867 31.7476 9.40101 31.9762 9.40101C32.1069 9.40101 32.2189 9.38467 32.3122 9.35201C32.4102 9.31467 32.4942 9.27501 32.5642 9.23301C32.6342 9.19101 32.6926 9.15367 32.7392 9.12101C32.7906 9.08367 32.8349 9.06501 32.8722 9.06501C32.9376 9.06501 32.9959 9.10467 33.0472 9.18401L33.4112 9.77901C33.1966 9.97967 32.9376 10.1383 32.6342 10.255C32.3309 10.367 32.0182 10.423 31.6962 10.423ZM37.4848 3.10801C38.0028 3.10801 38.4694 3.19434 38.8848 3.36701C39.3001 3.53967 39.6548 3.78467 39.9488 4.10201C40.2428 4.41934 40.4668 4.80434 40.6208 5.25701C40.7794 5.70501 40.8588 6.20667 40.8588 6.762C40.8588 7.32201 40.7794 7.82601 40.6208 8.27401C40.4668 8.72201 40.2428 9.10467 39.9488 9.42201C39.6548 9.73934 39.3001 9.98434 38.8848 10.157C38.4694 10.325 38.0028 10.409 37.4848 10.409C36.9621 10.409 36.4908 10.325 36.0708 10.157C35.6554 9.98434 35.3008 9.73934 35.0068 9.42201C34.7128 9.10467 34.4864 8.72201 34.3278 8.27401C34.1738 7.82601 34.0968 7.32201 34.0968 6.762C34.0968 6.20667 34.1738 5.70501 34.3278 5.25701C34.4864 4.80434 34.7128 4.41934 35.0068 4.10201C35.3008 3.78467 35.6554 3.53967 36.0708 3.36701C36.4908 3.19434 36.9621 3.10801 37.4848 3.10801ZM37.4848 9.43601C38.1848 9.43601 38.7074 9.20267 39.0528 8.73601C39.3981 8.26467 39.5708 7.609 39.5708 6.769C39.5708 5.92434 39.3981 5.26634 39.0528 4.79501C38.7074 4.32367 38.1848 4.08801 37.4848 4.08801C37.1301 4.08801 36.8198 4.14867 36.5538 4.27001C36.2924 4.39134 36.0731 4.56634 35.8958 4.79501C35.7231 5.02367 35.5924 5.30601 35.5038 5.642C35.4198 5.97334 35.3778 6.349 35.3778 6.769C35.3778 7.609 35.5504 8.26467 35.8958 8.73601C36.2458 9.20267 36.7754 9.43601 37.4848 9.43601ZM53.3572 8.23901C53.4318 8.23901 53.4972 8.26934 53.5532 8.33001L54.0922 8.91101C53.6815 9.38701 53.1822 9.75801 52.5942 10.024C52.0108 10.29 51.3038 10.423 50.4732 10.423C49.7545 10.423 49.1012 10.2993 48.5132 10.052C47.9252 9.80001 47.4235 9.45001 47.0082 9.00201C46.5928 8.54934 46.2708 8.00801 46.0422 7.37801C45.8135 6.74801 45.6992 6.05501 45.6992 5.29901C45.6992 4.543 45.8182 3.85001 46.0562 3.22001C46.2942 2.59001 46.6278 2.04867 47.0572 1.59601C47.4912 1.14334 48.0092 0.793339 48.6112 0.546005C49.2132 0.294004 49.8782 0.168005 50.6062 0.168005C51.3202 0.168005 51.9502 0.282338 52.4962 0.511004C53.0422 0.739672 53.5228 1.05 53.9382 1.44201L53.4902 2.06501C53.4622 2.11167 53.4248 2.15134 53.3782 2.18401C53.3362 2.212 53.2778 2.226 53.2032 2.226C53.1192 2.226 53.0165 2.18167 52.8952 2.09301C52.7738 1.99967 52.6152 1.89701 52.4192 1.78501C52.2232 1.67301 51.9782 1.57267 51.6842 1.484C51.3902 1.39067 51.0285 1.34401 50.5992 1.34401C50.0812 1.34401 49.6075 1.43501 49.1782 1.61701C48.7488 1.79434 48.3778 2.05334 48.0652 2.39401C47.7572 2.73467 47.5168 3.15 47.3442 3.64001C47.1715 4.13 47.0852 4.68301 47.0852 5.29901C47.0852 5.92434 47.1738 6.48201 47.3512 6.97201C47.5332 7.46201 47.7782 7.87734 48.0862 8.21801C48.3988 8.55401 48.7652 8.81067 49.1852 8.98801C49.6098 9.16534 50.0672 9.25401 50.5572 9.25401C50.8558 9.25401 51.1242 9.23767 51.3622 9.20501C51.6048 9.16767 51.8265 9.11167 52.0272 9.03701C52.2325 8.96234 52.4215 8.86901 52.5942 8.75701C52.7715 8.64034 52.9465 8.50267 53.1192 8.34401C53.1985 8.27401 53.2778 8.23901 53.3572 8.23901ZM59.2157 7.11901C58.6417 7.13767 58.1517 7.18434 57.7457 7.25901C57.3444 7.32901 57.0154 7.42234 56.7587 7.53901C56.5067 7.65567 56.3224 7.79334 56.2057 7.95201C56.0937 8.11067 56.0377 8.28801 56.0377 8.48401C56.0377 8.67067 56.0681 8.83167 56.1287 8.96701C56.1894 9.10234 56.2711 9.21434 56.3737 9.30301C56.4811 9.38701 56.6047 9.45001 56.7447 9.49201C56.8894 9.52934 57.0434 9.54801 57.2067 9.54801C57.4261 9.54801 57.6267 9.52701 57.8087 9.48501C57.9907 9.43834 58.1611 9.37301 58.3197 9.28901C58.4831 9.20501 58.6371 9.10467 58.7817 8.98801C58.9311 8.87134 59.0757 8.73834 59.2157 8.58901L59.2157 7.11901ZM55.1907 4.221C55.5827 3.84301 56.0051 3.56067 56.4577 3.37401C56.9104 3.18734 57.4121 3.09401 57.9627 3.09401C58.3594 3.09401 58.7117 3.15934 59.0197 3.29001C59.3277 3.42067 59.5867 3.60267 59.7967 3.83601C60.0067 4.06934 60.1654 4.35167 60.2727 4.68301C60.3801 5.01434 60.4337 5.37834 60.4337 5.77501L60.4337 10.311L59.8807 10.311C59.7594 10.311 59.6661 10.2923 59.6007 10.255C59.5354 10.213 59.4841 10.1337 59.4467 10.017L59.3067 9.34501C59.1201 9.51767 58.9381 9.67167 58.7607 9.80701C58.5834 9.93767 58.3967 10.0497 58.2007 10.143C58.0047 10.2317 57.7947 10.2993 57.5707 10.346C57.3514 10.3973 57.1064 10.423 56.8357 10.423C56.5604 10.423 56.3014 10.3857 56.0587 10.311C55.8161 10.2317 55.6037 10.115 55.4217 9.96101C55.2444 9.80701 55.1021 9.61334 54.9947 9.38001C54.8921 9.14201 54.8407 8.86201 54.8407 8.54001C54.8407 8.26001 54.9177 7.99167 55.0717 7.73501C55.2257 7.47367 55.4754 7.24267 55.8207 7.04201C56.1661 6.84134 56.6164 6.67801 57.1717 6.55201C57.7271 6.42134 58.4084 6.34667 59.2157 6.32801L59.2157 5.77501C59.2157 5.22434 59.0967 4.80901 58.8587 4.52901C58.6207 4.24434 58.2731 4.10201 57.8157 4.10201C57.5077 4.10201 57.2487 4.14167 57.0387 4.221C56.8334 4.29567 56.6537 4.38201 56.4997 4.48001C56.3504 4.57334 56.2197 4.65967 56.1077 4.73901C56.0004 4.81367 55.8931 4.85101 55.7857 4.85101C55.7017 4.85101 55.6294 4.83001 55.5687 4.78801C55.5081 4.74134 55.4567 4.68534 55.4147 4.62001L55.1907 4.221ZM63.5147 4.641C63.7387 4.15567 64.0141 3.77767 64.3407 3.50701C64.6674 3.23167 65.0664 3.09401 65.5377 3.09401C65.687 3.09401 65.8294 3.11034 65.9647 3.14301C66.1047 3.17567 66.2284 3.22701 66.3357 3.297L66.2447 4.22801C66.2167 4.34467 66.1467 4.40301 66.0347 4.40301C65.9694 4.40301 65.8737 4.38901 65.7477 4.36101C65.6217 4.33301 65.4794 4.31901 65.3207 4.31901C65.0967 4.31901 64.896 4.35167 64.7187 4.41701C64.5461 4.48234 64.3897 4.58034 64.2497 4.71101C64.1144 4.83701 63.9907 4.99567 63.8787 5.18701C63.7714 5.37367 63.6734 5.58834 63.5847 5.83101L63.5847 10.311L62.3317 10.311L62.3317 3.22001L63.0457 3.22001C63.1811 3.22001 63.2744 3.24567 63.3257 3.297C63.3771 3.34834 63.4121 3.43701 63.4307 3.56301L63.5147 4.641ZM69.6083 10.423C69.0483 10.423 68.6167 10.2667 68.3133 9.95401C68.0147 9.64134 67.8653 9.19101 67.8653 8.60301L67.8653 4.26301L67.0113 4.26301C66.9367 4.26301 66.8737 4.24201 66.8223 4.20001C66.771 4.15334 66.7453 4.08334 66.7453 3.99001L66.7453 3.49301L67.9073 3.346L68.1943 1.15501C68.2083 1.085 68.2387 1.02901 68.2853 0.987005C68.3367 0.940339 68.402 0.917006 68.4813 0.917006L69.1113 0.917006L69.1113 3.36001L71.1623 3.36001L71.1623 4.26301L69.1113 4.26301L69.1113 8.51901C69.1113 8.81767 69.1837 9.03934 69.3283 9.18401C69.473 9.32867 69.6597 9.40101 69.8883 9.40101C70.019 9.40101 70.131 9.38467 70.2243 9.35201C70.3223 9.31467 70.4063 9.27501 70.4763 9.23301C70.5463 9.19101 70.6047 9.15367 70.6513 9.12101C70.7027 9.08367 70.747 9.06501 70.7843 9.06501C70.8497 9.06501 70.908 9.10467 70.9593 9.18401L71.3233 9.77901C71.1087 9.97967 70.8497 10.1383 70.5463 10.255C70.243 10.367 69.9303 10.423 69.6083 10.423Z" fill="#FFFFFF" fill-opacity="1.000000" fill-rule="evenodd"/>
</svg>
